<svg overflow="visible" data-character="rigatoni" xmlns="http://www.w3.org/2000/svg" width="96" height="96" viewBox="0 0 96 96" fill="none" stroke="#2B2420" stroke-width="3" stroke-linecap="round" stroke-linejoin="round" data-figure="hang"><defs><filter id="paper-p10" x="-25%" y="-25%" width="150%" height="150%" color-interpolation-filters="sRGB"><feMorphology in="SourceAlpha" operator="dilate" radius="1.1" result="o"/><feFlood flood-color="#3A2A20"/><feComposite in2="o" operator="in" result="outline"/><feMorphology in="SourceAlpha" operator="dilate" radius="4.2" result="d"/><feFlood flood-color="#FFFFFF"/><feComposite in2="d" operator="in" result="edge"/><feOffset in="d" dx="1.8" dy="2.8" result="so"/><feFlood flood-color="#3A2A20" flood-opacity="0.26"/><feComposite in2="so" operator="in" result="shadow"/><feMerge><feMergeNode in="shadow"/><feMergeNode in="edge"/><feMergeNode in="outline"/></feMerge></filter></defs><g data-part="paper" filter="url(#paper-p10)">
  <g>
    <animateTransform attributeName="transform" type="rotate" values="-4 48 5;4 48 5;-4 48 5" keyTimes="0;0.5;1" calcMode="spline" keySplines="0.45 0 0.55 1;0.45 0 0.55 1" dur="1.6s" repeatCount="indefinite"/>
    <g data-part="legs">
      <path d="M43 58 Q42 70 41 81">
        <animate attributeName="d" values="M43 58 Q42 70 41 81;M43 58 Q41 70 38 80;M43 58 Q42 70 41 81" keyTimes="0;0.5;1" calcMode="spline" keySplines="0.45 0 0.55 1;0.45 0 0.55 1" dur="0.8s" repeatCount="indefinite"/>
      </path>
      <path d="M53 58 Q54 70 55 81">
        <animate attributeName="d" values="M53 58 Q54 70 55 81;M53 58 Q55 70 58 80;M53 58 Q54 70 55 81" keyTimes="0;0.5;1" calcMode="spline" keySplines="0.45 0 0.55 1;0.45 0 0.55 1" dur="0.8s" repeatCount="indefinite"/>
      </path>
      <ellipse cx="40" cy="83" rx="3.2" ry="4.2" fill="#2B2420" stroke="none"/>
      <ellipse cx="56" cy="83" rx="3.2" ry="4.2" fill="#2B2420" stroke="none"/>
    </g>
    <path d="M36 41 Q26 28 35 7"/>
    <circle cx="35" cy="5.5" r="2.8" fill="#2B2420" stroke="none"/>
    <path d="M60 41 Q70 28 61 7"/>
    <circle cx="61" cy="5.5" r="2.8" fill="#2B2420" stroke="none"/>
    <path data-part="body" d="M40 23 L56 23 Q61 23 61 28 L61 57 Q61 62 56 62 L40 62 Q35 62 35 57 L35 28 Q35 23 40 23 Z" fill="#EDBB5F" stroke="none"/><path d="M38.5 25.0 L38.5 60.0" stroke="#CF9640" stroke-width="1.3" opacity="0.8"/><path d="M43 25.0 L43 60.0" stroke="#CF9640" stroke-width="1.3" opacity="0.8"/><path d="M48 25.0 L48 60.0" stroke="#CF9640" stroke-width="1.3" opacity="0.8"/><path d="M53 25.0 L53 60.0" stroke="#CF9640" stroke-width="1.3" opacity="0.8"/><path d="M57.5 25.0 L57.5 60.0" stroke="#CF9640" stroke-width="1.3" opacity="0.8"/>
    <g data-part="head">
      <path d="M35 15 Q35 10 40 10 L56 10 Q61 10 61 15 L61 37 L35 37 Z" fill="#EDBB5F" stroke="none"/><path d="M38.5 15.6 L38.5 37.0" stroke="#CF9640" stroke-width="1.3" opacity="0.8"/><path d="M43 15.6 L43 37.0" stroke="#CF9640" stroke-width="1.3" opacity="0.8"/><path d="M48 15.6 L48 37.0" stroke="#CF9640" stroke-width="1.3" opacity="0.8"/><path d="M53 15.6 L53 37.0" stroke="#CF9640" stroke-width="1.3" opacity="0.8"/><path d="M57.5 15.6 L57.5 37.0" stroke="#CF9640" stroke-width="1.3" opacity="0.8"/><ellipse cx="48" cy="12.8" rx="10.5" ry="2.6" fill="#B9852E" stroke="none"/>
      <g data-part="face" transform="translate(0 -6)">
        <circle cx="40" cy="33" r="2.6" fill="#F2A58A" stroke="none"/>
        <circle cx="56" cy="33" r="2.6" fill="#F2A58A" stroke="none"/>
        <ellipse cx="44" cy="28" rx="1.8" ry="2.4" fill="#2B2420" stroke="none"/>
        <ellipse cx="52" cy="28" rx="1.8" ry="2.4" fill="#2B2420" stroke="none"/>
        <path d="M44.8 32.5 Q48 37.2 51.2 32.5 Z" fill="#2B2420" stroke="#2B2420" stroke-width="1.4"/>
      </g>
    </g>
  </g>
</g>
  <g>
    <animateTransform attributeName="transform" type="rotate" values="-4 48 5;4 48 5;-4 48 5" keyTimes="0;0.5;1" calcMode="spline" keySplines="0.45 0 0.55 1;0.45 0 0.55 1" dur="1.6s" repeatCount="indefinite"/>
    <g data-part="legs">
      <path d="M43 58 Q42 70 41 81">
        <animate attributeName="d" values="M43 58 Q42 70 41 81;M43 58 Q41 70 38 80;M43 58 Q42 70 41 81" keyTimes="0;0.5;1" calcMode="spline" keySplines="0.45 0 0.55 1;0.45 0 0.55 1" dur="0.8s" repeatCount="indefinite"/>
      </path>
      <path d="M53 58 Q54 70 55 81">
        <animate attributeName="d" values="M53 58 Q54 70 55 81;M53 58 Q55 70 58 80;M53 58 Q54 70 55 81" keyTimes="0;0.5;1" calcMode="spline" keySplines="0.45 0 0.55 1;0.45 0 0.55 1" dur="0.8s" repeatCount="indefinite"/>
      </path>
      <ellipse cx="40" cy="83" rx="3.2" ry="4.2" fill="#2B2420" stroke="none"/>
      <ellipse cx="56" cy="83" rx="3.2" ry="4.2" fill="#2B2420" stroke="none"/>
    </g>
    <path d="M36 41 Q26 28 35 7"/>
    <circle cx="35" cy="5.5" r="2.8" fill="#2B2420" stroke="none"/>
    <path d="M60 41 Q70 28 61 7"/>
    <circle cx="61" cy="5.5" r="2.8" fill="#2B2420" stroke="none"/>
    <path data-part="body" d="M40 23 L56 23 Q61 23 61 28 L61 57 Q61 62 56 62 L40 62 Q35 62 35 57 L35 28 Q35 23 40 23 Z" fill="#EDBB5F" stroke="none"/><path d="M38.5 25.0 L38.5 60.0" stroke="#CF9640" stroke-width="1.3" opacity="0.8"/><path d="M43 25.0 L43 60.0" stroke="#CF9640" stroke-width="1.3" opacity="0.8"/><path d="M48 25.0 L48 60.0" stroke="#CF9640" stroke-width="1.3" opacity="0.8"/><path d="M53 25.0 L53 60.0" stroke="#CF9640" stroke-width="1.3" opacity="0.8"/><path d="M57.5 25.0 L57.5 60.0" stroke="#CF9640" stroke-width="1.3" opacity="0.8"/>
    <g data-part="head">
      <path d="M35 15 Q35 10 40 10 L56 10 Q61 10 61 15 L61 37 L35 37 Z" fill="#EDBB5F" stroke="none"/><path d="M38.5 15.6 L38.5 37.0" stroke="#CF9640" stroke-width="1.3" opacity="0.8"/><path d="M43 15.6 L43 37.0" stroke="#CF9640" stroke-width="1.3" opacity="0.8"/><path d="M48 15.6 L48 37.0" stroke="#CF9640" stroke-width="1.3" opacity="0.8"/><path d="M53 15.6 L53 37.0" stroke="#CF9640" stroke-width="1.3" opacity="0.8"/><path d="M57.5 15.6 L57.5 37.0" stroke="#CF9640" stroke-width="1.3" opacity="0.8"/><ellipse cx="48" cy="12.8" rx="10.5" ry="2.6" fill="#B9852E" stroke="none"/>
      <g data-part="face" transform="translate(0 -6)">
        <circle cx="40" cy="33" r="2.6" fill="#F2A58A" stroke="none"/>
        <circle cx="56" cy="33" r="2.6" fill="#F2A58A" stroke="none"/>
        <ellipse cx="44" cy="28" rx="1.8" ry="2.4" fill="#2B2420" stroke="none"/>
        <ellipse cx="52" cy="28" rx="1.8" ry="2.4" fill="#2B2420" stroke="none"/>
        <path d="M44.8 32.5 Q48 37.2 51.2 32.5 Z" fill="#2B2420" stroke="#2B2420" stroke-width="1.4"/>
      </g>
    </g>
  </g>
</svg>