<svg overflow="visible" data-character="rigatoni" xmlns="http://www.w3.org/2000/svg" width="96" height="96" viewBox="0 0 96 96" fill="none" stroke="#2B2420" stroke-width="3" stroke-linecap="round" stroke-linejoin="round" data-figure="peek"><defs><filter id="paper-p11" x="-25%" y="-25%" width="150%" height="150%" color-interpolation-filters="sRGB"><feMorphology in="SourceAlpha" operator="dilate" radius="1.1" result="o"/><feFlood flood-color="#3A2A20"/><feComposite in2="o" operator="in" result="outline"/><feMorphology in="SourceAlpha" operator="dilate" radius="4.2" result="d"/><feFlood flood-color="#FFFFFF"/><feComposite in2="d" operator="in" result="edge"/><feOffset in="d" dx="1.8" dy="2.8" result="so"/><feFlood flood-color="#3A2A20" flood-opacity="0.26"/><feComposite in2="so" operator="in" result="shadow"/><feMerge><feMergeNode in="shadow"/><feMergeNode in="edge"/><feMergeNode in="outline"/></feMerge></filter></defs><g data-part="paper" filter="url(#paper-p11)">
  <g data-part="lift" transform="translate(0 6)">
    <path d="M38 50 Q34 45 36 41"/>
    <path d="M58 50 Q62 45 60 41"/>
    <path data-part="body" d="M40 23 L56 23 Q61 23 61 28 L61 57 Q61 62 56 62 L40 62 Q35 62 35 57 L35 28 Q35 23 40 23 Z" fill="#EDBB5F" stroke="none"/><path d="M38.5 25.0 L38.5 60.0" stroke="#CF9640" stroke-width="1.3" opacity="0.8"/><path d="M43 25.0 L43 60.0" stroke="#CF9640" stroke-width="1.3" opacity="0.8"/><path d="M48 25.0 L48 60.0" stroke="#CF9640" stroke-width="1.3" opacity="0.8"/><path d="M53 25.0 L53 60.0" stroke="#CF9640" stroke-width="1.3" opacity="0.8"/><path d="M57.5 25.0 L57.5 60.0" stroke="#CF9640" stroke-width="1.3" opacity="0.8"/>
    <g data-part="head">
      <path d="M35 15 Q35 10 40 10 L56 10 Q61 10 61 15 L61 37 L35 37 Z" fill="#EDBB5F" stroke="none"/><path d="M38.5 15.6 L38.5 37.0" stroke="#CF9640" stroke-width="1.3" opacity="0.8"/><path d="M43 15.6 L43 37.0" stroke="#CF9640" stroke-width="1.3" opacity="0.8"/><path d="M48 15.6 L48 37.0" stroke="#CF9640" stroke-width="1.3" opacity="0.8"/><path d="M53 15.6 L53 37.0" stroke="#CF9640" stroke-width="1.3" opacity="0.8"/><path d="M57.5 15.6 L57.5 37.0" stroke="#CF9640" stroke-width="1.3" opacity="0.8"/><ellipse cx="48" cy="12.8" rx="10.5" ry="2.6" fill="#B9852E" stroke="none"/>
      <g data-part="face" transform="translate(0 -6)">
        <circle cx="40" cy="33" r="2.6" fill="#F2A58A" stroke="none"/>
        <circle cx="56" cy="33" r="2.6" fill="#F2A58A" stroke="none"/>
        <ellipse data-part="eye" cx="44" cy="28" rx="1.8" ry="2.4" fill="#2B2420" stroke="none"/>
        <ellipse data-part="eye" cx="52" cy="28" rx="1.8" ry="2.4" fill="#2B2420" stroke="none"/>
        <path d="M45.5 33.5 Q48 36 50.5 33.5" stroke="#2B2420" stroke-width="1.8"/>
      </g>
    </g>
  </g>
  <g data-part="hands">
    <circle data-part="hand-l" cx="34.5" cy="40.5" r="3.2" fill="#2B2420" stroke="none"/>
    <circle data-part="hand-r" cx="61.5" cy="40.5" r="3.2" fill="#2B2420" stroke="none"/>
  </g>
</g>
  <g data-part="lift" transform="translate(0 6)">
    <path d="M38 50 Q34 45 36 41"/>
    <path d="M58 50 Q62 45 60 41"/>
    <path data-part="body" d="M40 23 L56 23 Q61 23 61 28 L61 57 Q61 62 56 62 L40 62 Q35 62 35 57 L35 28 Q35 23 40 23 Z" fill="#EDBB5F" stroke="none"/><path d="M38.5 25.0 L38.5 60.0" stroke="#CF9640" stroke-width="1.3" opacity="0.8"/><path d="M43 25.0 L43 60.0" stroke="#CF9640" stroke-width="1.3" opacity="0.8"/><path d="M48 25.0 L48 60.0" stroke="#CF9640" stroke-width="1.3" opacity="0.8"/><path d="M53 25.0 L53 60.0" stroke="#CF9640" stroke-width="1.3" opacity="0.8"/><path d="M57.5 25.0 L57.5 60.0" stroke="#CF9640" stroke-width="1.3" opacity="0.8"/>
    <g data-part="head">
      <path d="M35 15 Q35 10 40 10 L56 10 Q61 10 61 15 L61 37 L35 37 Z" fill="#EDBB5F" stroke="none"/><path d="M38.5 15.6 L38.5 37.0" stroke="#CF9640" stroke-width="1.3" opacity="0.8"/><path d="M43 15.6 L43 37.0" stroke="#CF9640" stroke-width="1.3" opacity="0.8"/><path d="M48 15.6 L48 37.0" stroke="#CF9640" stroke-width="1.3" opacity="0.8"/><path d="M53 15.6 L53 37.0" stroke="#CF9640" stroke-width="1.3" opacity="0.8"/><path d="M57.5 15.6 L57.5 37.0" stroke="#CF9640" stroke-width="1.3" opacity="0.8"/><ellipse cx="48" cy="12.8" rx="10.5" ry="2.6" fill="#B9852E" stroke="none"/>
      <g data-part="face" transform="translate(0 -6)">
        <circle cx="40" cy="33" r="2.6" fill="#F2A58A" stroke="none"/>
        <circle cx="56" cy="33" r="2.6" fill="#F2A58A" stroke="none"/>
        <ellipse data-part="eye" cx="44" cy="28" rx="1.8" ry="2.4" fill="#2B2420" stroke="none"/>
        <ellipse data-part="eye" cx="52" cy="28" rx="1.8" ry="2.4" fill="#2B2420" stroke="none"/>
        <path d="M45.5 33.5 Q48 36 50.5 33.5" stroke="#2B2420" stroke-width="1.8"/>
      </g>
    </g>
  </g>
  <g data-part="hands">
    <circle data-part="hand-l" cx="34.5" cy="40.5" r="3.2" fill="#2B2420" stroke="none"/>
    <circle data-part="hand-r" cx="61.5" cy="40.5" r="3.2" fill="#2B2420" stroke="none"/>
  </g>
</svg>