<svg data-character="penne" xmlns="http://www.w3.org/2000/svg" width="96" height="96" viewBox="0 0 96 96" fill="none" stroke="currentColor" stroke-width="3" stroke-linecap="round" stroke-linejoin="round" data-figure="hang">
  <g>
    <animateTransform attributeName="transform" type="rotate" values="-4 48 5;4 48 5;-4 48 5" keyTimes="0;0.5;1" calcMode="spline" keySplines="0.45 0 0.55 1;0.45 0 0.55 1" dur="1.6s" repeatCount="indefinite"/>
    <g data-part="legs">
      <path d="M43 58 Q42 70 41 81">
        <animate attributeName="d" values="M43 58 Q42 70 41 81;M43 58 Q41 70 38 80;M43 58 Q42 70 41 81" keyTimes="0;0.5;1" calcMode="spline" keySplines="0.45 0 0.55 1;0.45 0 0.55 1" dur="0.8s" repeatCount="indefinite"/>
      </path>
      <path d="M53 58 Q54 70 55 81">
        <animate attributeName="d" values="M53 58 Q54 70 55 81;M53 58 Q55 70 58 80;M53 58 Q54 70 55 81" keyTimes="0;0.5;1" calcMode="spline" keySplines="0.45 0 0.55 1;0.45 0 0.55 1" dur="0.8s" repeatCount="indefinite"/>
      </path>
      <ellipse cx="40" cy="83" rx="3.2" ry="4.2" fill="currentColor" stroke="none"/>
      <ellipse cx="56" cy="83" rx="3.2" ry="4.2" fill="currentColor" stroke="none"/>
    </g>
    <path d="M36 41 Q26 28 35 7"/>
    <circle cx="35" cy="5.5" r="2.8" fill="currentColor" stroke="none"/>
    <path d="M60 41 Q70 28 61 7"/>
    <circle cx="61" cy="5.5" r="2.8" fill="currentColor" stroke="none"/>
    <path data-part="body" d="M35 23 L61 23 L61 58 L35 65 Z" fill="#EEBF62" stroke="none"/><path d="M38.5 23.0 L38.5 61.6" stroke="#CC933D" stroke-width="1.3" opacity="0.8"/><path d="M43 23.0 L43 60.3" stroke="#CC933D" stroke-width="1.3" opacity="0.8"/><path d="M48 23.0 L48 59.0" stroke="#CC933D" stroke-width="1.3" opacity="0.8"/><path d="M53 23.0 L53 57.7" stroke="#CC933D" stroke-width="1.3" opacity="0.8"/><path d="M57.5 23.0 L57.5 56.4" stroke="#CC933D" stroke-width="1.3" opacity="0.8"/>
    <g data-part="head">
      <path d="M35 12.0 L61 4.0 L61 37 L35 37 Z" fill="#EEBF62" stroke="none"/><path d="M38.5 14.9 L38.5 37.0" stroke="#CC933D" stroke-width="1.3" opacity="0.8"/><path d="M43 13.5 L43 37.0" stroke="#CC933D" stroke-width="1.3" opacity="0.8"/><path d="M48 12.0 L48 37.0" stroke="#CC933D" stroke-width="1.3" opacity="0.8"/><path d="M53 10.5 L53 37.0" stroke="#CC933D" stroke-width="1.3" opacity="0.8"/><path d="M57.5 9.1 L57.5 37.0" stroke="#CC933D" stroke-width="1.3" opacity="0.8"/><ellipse cx="48" cy="8.5" rx="11.5" ry="2.4" fill="#B5812B" stroke="none" transform="rotate(-17 48 8.5)"/>
      <g data-part="face" transform="translate(0 -6)">
        <circle cx="40" cy="33" r="2.6" fill="#F2A58A" stroke="none"/>
        <circle cx="56" cy="33" r="2.6" fill="#F2A58A" stroke="none"/>
        <ellipse cx="44" cy="28" rx="1.8" ry="2.4" fill="#2B2420" stroke="none"/>
        <ellipse cx="52" cy="28" rx="1.8" ry="2.4" fill="#2B2420" stroke="none"/>
        <path d="M44.8 32.5 Q48 37.2 51.2 32.5 Z" fill="#2B2420" stroke="#2B2420" stroke-width="1.4"/>
      </g>
    </g>
  </g>
</svg>
