<svg overflow="visible" data-character="penne" xmlns="http://www.w3.org/2000/svg" width="96" height="96" viewBox="0 0 96 96" fill="none" stroke="#2B2420" stroke-width="3" stroke-linecap="round" stroke-linejoin="round" data-figure="hip-flexor"><defs><filter id="paper-p26" x="-25%" y="-25%" width="150%" height="150%" color-interpolation-filters="sRGB"><feMorphology in="SourceAlpha" operator="dilate" radius="1.1" result="o"/><feFlood flood-color="#3A2A20"/><feComposite in2="o" operator="in" result="outline"/><feMorphology in="SourceAlpha" operator="dilate" radius="4.2" result="d"/><feFlood flood-color="#FFFFFF"/><feComposite in2="d" operator="in" result="edge"/><feOffset in="d" dx="1.8" dy="2.8" result="so"/><feFlood flood-color="#3A2A20" flood-opacity="0.26"/><feComposite in2="so" operator="in" result="shadow"/><feMerge><feMergeNode in="shadow"/><feMergeNode in="edge"/><feMergeNode in="outline"/></feMerge></filter></defs><g data-part="paper" filter="url(#paper-p26)">
  <defs><radialGradient id="cp-glow-penne26-b"><stop offset="0" stop-color="#FF7A59"/><stop offset="0.55" stop-color="#FF7A59" stop-opacity="0.75"/><stop offset="1" stop-color="#FF7A59" stop-opacity="0"/></radialGradient></defs>
  
  
  <g data-part="legs">
    <path d="M45 64 L35 75 L27 83">
      <animate attributeName="d" values="M45 64 L35 75 L27 83;M49 65 L38 76 L27 83;M49 65 L38 76 L27 83;M45 64 L35 75 L27 83" keyTimes="0;0.35;0.75;1" calcMode="spline" keySplines="0.45 0 0.55 1;0 0 1 1;0.45 0 0.55 1" dur="3.2s" repeatCount="indefinite"/>
    </path>
    <ellipse cx="25" cy="84.5" rx="4.5" ry="2.4" fill="#2B2420" stroke="none"/>
    <path d="M51 64 L62 71 L62 83">
      <animate attributeName="d" values="M51 64 L62 71 L62 83;M55 65 L65 72 L62 83;M55 65 L65 72 L62 83;M51 64 L62 71 L62 83" keyTimes="0;0.35;0.75;1" calcMode="spline" keySplines="0.45 0 0.55 1;0 0 1 1;0.45 0 0.55 1" dur="3.2s" repeatCount="indefinite"/>
    </path>
    <ellipse cx="65" cy="85" rx="5" ry="2.6" fill="#2B2420" stroke="none"/>
  </g>
  <g>
    <animateTransform attributeName="transform" type="translate" values="0 0;4 1;4 1;0 0" keyTimes="0;0.35;0.75;1" calcMode="spline" keySplines="0.45 0 0.55 1;0 0 1 1;0.45 0 0.55 1" dur="3.2s" repeatCount="indefinite"/>
    <g transform="translate(0 6)">
      <path data-part="body" d="M35 23 L61 23 L61 58 L35 65 Z" fill="#EEBF62" stroke="none"/><path d="M38.5 23.0 L38.5 61.6" stroke="#CC933D" stroke-width="1.3" opacity="0.8"/><path d="M43 23.0 L43 60.3" stroke="#CC933D" stroke-width="1.3" opacity="0.8"/><path d="M48 23.0 L48 59.0" stroke="#CC933D" stroke-width="1.3" opacity="0.8"/><path d="M53 23.0 L53 57.7" stroke="#CC933D" stroke-width="1.3" opacity="0.8"/><path d="M57.5 23.0 L57.5 56.4" stroke="#CC933D" stroke-width="1.3" opacity="0.8"/>
      
      <path d="M57 41 Q62 48 60.5 56"/>
      <circle cx="60.5" cy="57.5" r="2.8" fill="#2B2420" stroke="none"/>
      <g data-part="head">
        <path d="M35 12.0 L61 4.0 L61 37 L35 37 Z" fill="#EEBF62" stroke="none"/><path d="M38.5 14.9 L38.5 37.0" stroke="#CC933D" stroke-width="1.3" opacity="0.8"/><path d="M43 13.5 L43 37.0" stroke="#CC933D" stroke-width="1.3" opacity="0.8"/><path d="M48 12.0 L48 37.0" stroke="#CC933D" stroke-width="1.3" opacity="0.8"/><path d="M53 10.5 L53 37.0" stroke="#CC933D" stroke-width="1.3" opacity="0.8"/><path d="M57.5 9.1 L57.5 37.0" stroke="#CC933D" stroke-width="1.3" opacity="0.8"/><ellipse cx="48" cy="8.5" rx="11.5" ry="2.4" fill="#B5812B" stroke="none" transform="rotate(-17 48 8.5)"/>
        <g data-part="face" transform="translate(0 -6)">
          <circle cx="53" cy="32.5" r="2.4" fill="#F2A58A" stroke="none"/>
          <path d="M53.2 27 Q55 25.2 56.8 27" stroke="#2B2420" stroke-width="1.8"/>
          <path d="M55 32.5 Q57.5 34.5 59.5 32" stroke="#2B2420" stroke-width="1.8"/>
        </g>
      </g>
    </g>
  </g>
</g>
  <defs><radialGradient id="cp-glow-penne26"><stop offset="0" stop-color="#FF7A59"/><stop offset="0.55" stop-color="#FF7A59" stop-opacity="0.75"/><stop offset="1" stop-color="#FF7A59" stop-opacity="0"/></radialGradient></defs>
  
  <path data-part="cue" d="M14 58 L25 58 M21 54 L25 58 L21 62" stroke="#C4623F" stroke-width="2.4" opacity="0">
    <animate attributeName="opacity" values="0;1;1;0;0" keyTimes="0;0.15;0.7;0.8;1" dur="3.2s" repeatCount="indefinite"/>
    <animateTransform attributeName="transform" type="translate" values="0 0;4 0;4 0" keyTimes="0;0.35;1" dur="3.2s" repeatCount="indefinite"/>
  </path>
  <g data-part="legs">
    <path d="M45 64 L35 75 L27 83">
      <animate attributeName="d" values="M45 64 L35 75 L27 83;M49 65 L38 76 L27 83;M49 65 L38 76 L27 83;M45 64 L35 75 L27 83" keyTimes="0;0.35;0.75;1" calcMode="spline" keySplines="0.45 0 0.55 1;0 0 1 1;0.45 0 0.55 1" dur="3.2s" repeatCount="indefinite"/>
    </path>
    <ellipse cx="25" cy="84.5" rx="4.5" ry="2.4" fill="#2B2420" stroke="none"/>
    <path d="M51 64 L62 71 L62 83">
      <animate attributeName="d" values="M51 64 L62 71 L62 83;M55 65 L65 72 L62 83;M55 65 L65 72 L62 83;M51 64 L62 71 L62 83" keyTimes="0;0.35;0.75;1" calcMode="spline" keySplines="0.45 0 0.55 1;0 0 1 1;0.45 0 0.55 1" dur="3.2s" repeatCount="indefinite"/>
    </path>
    <ellipse cx="65" cy="85" rx="5" ry="2.6" fill="#2B2420" stroke="none"/>
  </g>
  <g>
    <animateTransform attributeName="transform" type="translate" values="0 0;4 1;4 1;0 0" keyTimes="0;0.35;0.75;1" calcMode="spline" keySplines="0.45 0 0.55 1;0 0 1 1;0.45 0 0.55 1" dur="3.2s" repeatCount="indefinite"/>
    <g transform="translate(0 6)">
      <path data-part="body" d="M35 23 L61 23 L61 58 L35 65 Z" fill="#EEBF62" stroke="none"/><path d="M38.5 23.0 L38.5 61.6" stroke="#CC933D" stroke-width="1.3" opacity="0.8"/><path d="M43 23.0 L43 60.3" stroke="#CC933D" stroke-width="1.3" opacity="0.8"/><path d="M48 23.0 L48 59.0" stroke="#CC933D" stroke-width="1.3" opacity="0.8"/><path d="M53 23.0 L53 57.7" stroke="#CC933D" stroke-width="1.3" opacity="0.8"/><path d="M57.5 23.0 L57.5 56.4" stroke="#CC933D" stroke-width="1.3" opacity="0.8"/>
      <circle data-part="glow" cx="44" cy="57" r="9.35" fill="url(#cp-glow-penne26)" stroke="none" opacity="0">
        <animate attributeName="opacity" values="0;0;1;1;0;0" keyTimes="0;0.25;0.4;0.72;0.85;1" dur="3.2s" repeatCount="indefinite"/>
      </circle>
      <path d="M57 41 Q62 48 60.5 56"/>
      <circle cx="60.5" cy="57.5" r="2.8" fill="#2B2420" stroke="none"/>
      <g data-part="head">
        <path d="M35 12.0 L61 4.0 L61 37 L35 37 Z" fill="#EEBF62" stroke="none"/><path d="M38.5 14.9 L38.5 37.0" stroke="#CC933D" stroke-width="1.3" opacity="0.8"/><path d="M43 13.5 L43 37.0" stroke="#CC933D" stroke-width="1.3" opacity="0.8"/><path d="M48 12.0 L48 37.0" stroke="#CC933D" stroke-width="1.3" opacity="0.8"/><path d="M53 10.5 L53 37.0" stroke="#CC933D" stroke-width="1.3" opacity="0.8"/><path d="M57.5 9.1 L57.5 37.0" stroke="#CC933D" stroke-width="1.3" opacity="0.8"/><ellipse cx="48" cy="8.5" rx="11.5" ry="2.4" fill="#B5812B" stroke="none" transform="rotate(-17 48 8.5)"/>
        <g data-part="face" transform="translate(0 -6)">
          <circle cx="53" cy="32.5" r="2.4" fill="#F2A58A" stroke="none"/>
          <path d="M53.2 27 Q55 25.2 56.8 27" stroke="#2B2420" stroke-width="1.8"/>
          <path d="M55 32.5 Q57.5 34.5 59.5 32" stroke="#2B2420" stroke-width="1.8"/>
        </g>
      </g>
    </g>
  </g>
</svg>