<svg overflow="visible" xmlns="http://www.w3.org/2000/svg" width="96" height="96" viewBox="0 0 96 96" fill="none" stroke="#2B2420" stroke-width="3" stroke-linecap="round" stroke-linejoin="round" data-figure="doorway"><defs><filter id="paper-p46" x="-25%" y="-25%" width="150%" height="150%" color-interpolation-filters="sRGB"><feMorphology in="SourceAlpha" operator="dilate" radius="1.1" result="o"/><feFlood flood-color="#3A2A20"/><feComposite in2="o" operator="in" result="outline"/><feMorphology in="SourceAlpha" operator="dilate" radius="4.2" result="d"/><feFlood flood-color="#FFFFFF"/><feComposite in2="d" operator="in" result="edge"/><feOffset in="d" dx="1.8" dy="2.8" result="so"/><feFlood flood-color="#3A2A20" flood-opacity="0.26"/><feComposite in2="so" operator="in" result="shadow"/><feMerge><feMergeNode in="shadow"/><feMergeNode in="edge"/><feMergeNode in="outline"/></feMerge></filter></defs><g data-part="paper" filter="url(#paper-p46)">
  <defs><radialGradient id="cp-glow-b"><stop offset="0" stop-color="#FFC857"/><stop offset="0.55" stop-color="#FFC857" stop-opacity="0.75"/><stop offset="1" stop-color="#FFC857" stop-opacity="0"/></radialGradient></defs>
  
  
  <ellipse cx="47" cy="85" rx="5" ry="2.6" fill="#2B2420" stroke="none"/>
  <ellipse cx="54" cy="85" rx="5" ry="2.6" fill="#2B2420" stroke="none"/>
  
  <g>
    <animateTransform attributeName="transform" type="rotate" values="0 48 84;14 48 84;14 48 84;0 48 84" keyTimes="0;0.35;0.75;1" calcMode="spline" keySplines="0.45 0 0.55 1;0 0 1 1;0.45 0 0.55 1" dur="3.2s" repeatCount="indefinite"/>
    <g data-part="legs">
      <path d="M45 58 Q45 71 44 83"/>
      <path d="M51 58 Q51 71 51 83"/>
    </g>
    <path data-part="body" d="M43 29 L53 29 A8 8 0 0 1 61 37 L61 49 A13 13 0 0 1 48 62 A13 13 0 0 1 35 49 L35 37 A8 8 0 0 1 43 29 Z" fill="#D97757" stroke="none"/>
    
    <g data-part="head">
      <g data-part="topper">
        <animateTransform attributeName="transform" type="rotate" values="0 48 17;-12 48 17;-3 48 17;-3 48 17;8 48 17;0 48 17" keyTimes="0;0.3;0.45;0.75;0.9;1" calcMode="spline" keySplines="0.45 0 0.55 1;0.45 0 0.55 1;0 0 1 1;0.45 0 0.55 1;0.45 0 0.55 1" dur="3.2s" repeatCount="indefinite"/>
        <path d="M48 17 Q47.5 11 50 7" stroke="#6E8B4E" stroke-width="2.2"/>
        <path d="M50 8.5 C51 3.5 56.5 1.5 61.5 3 C60.5 7.5 55 10.5 50 8.5 Z" fill="#8DAA63" stroke="none"/>
        <path d="M49 10.5 C47.5 6.5 42.5 5 38.5 6.5 C40 10.5 45 12.5 49 10.5 Z" fill="#7C9A55" stroke="none"/>
      </g>
      <circle cx="48" cy="29" r="13" fill="#D97757" stroke="none"/>
      <g data-part="face">
        <circle cx="53" cy="32.5" r="2.4" fill="#F2A58A" stroke="none"/>
        <path d="M53.2 27 Q55 25.2 56.8 27" stroke="#2B2420" stroke-width="1.8"/>
        <path d="M55 32.5 Q57.5 34.5 59.5 32" stroke="#2B2420" stroke-width="1.8"/>
      </g>
    </g>
  </g>
  <path d="M56 41 Q67 37 77 40 L77 26">
    <animate attributeName="d" values="M56 41 Q67 37 77 40 L77 26;M66.4 44 Q72 37 77 40 L77 26;M66.4 44 Q72 37 77 40 L77 26;M56 41 Q67 37 77 40 L77 26" keyTimes="0;0.35;0.75;1" calcMode="spline" keySplines="0.45 0 0.55 1;0 0 1 1;0.45 0 0.55 1" dur="3.2s" repeatCount="indefinite"/>
  </path>
  <circle cx="77" cy="24.5" r="2.8" fill="#2B2420" stroke="none"/>
</g>
  <defs><radialGradient id="cp-glow"><stop offset="0" stop-color="#FFC857"/><stop offset="0.55" stop-color="#FFC857" stop-opacity="0.75"/><stop offset="1" stop-color="#FFC857" stop-opacity="0"/></radialGradient></defs>
  <path data-part="prop" stroke="currentColor" d="M81 4 L81 90" opacity="0.25"/>
  
  <ellipse cx="47" cy="85" rx="5" ry="2.6" fill="#2B2420" stroke="none"/>
  <ellipse cx="54" cy="85" rx="5" ry="2.6" fill="#2B2420" stroke="none"/>
  <path data-part="cue" d="M18 44 L29 44 M25 40 L29 44 L25 48" stroke="#C4623F" stroke-width="2.4" opacity="0">
    <animate attributeName="opacity" values="0;1;1;0;0" keyTimes="0;0.15;0.7;0.8;1" dur="3.2s" repeatCount="indefinite"/>
    <animateTransform attributeName="transform" type="translate" values="0 0;4 0;4 0" keyTimes="0;0.35;1" dur="3.2s" repeatCount="indefinite"/>
  </path>
  <g>
    <animateTransform attributeName="transform" type="rotate" values="0 48 84;14 48 84;14 48 84;0 48 84" keyTimes="0;0.35;0.75;1" calcMode="spline" keySplines="0.45 0 0.55 1;0 0 1 1;0.45 0 0.55 1" dur="3.2s" repeatCount="indefinite"/>
    <g data-part="legs">
      <path d="M45 58 Q45 71 44 83"/>
      <path d="M51 58 Q51 71 51 83"/>
    </g>
    <path data-part="body" d="M43 29 L53 29 A8 8 0 0 1 61 37 L61 49 A13 13 0 0 1 48 62 A13 13 0 0 1 35 49 L35 37 A8 8 0 0 1 43 29 Z" fill="#D97757" stroke="none"/>
    <circle data-part="glow" cx="57" cy="45" r="9.35" fill="url(#cp-glow)" stroke="none" opacity="0">
      <animate attributeName="opacity" values="0;0;1;1;0;0" keyTimes="0;0.25;0.4;0.72;0.85;1" dur="3.2s" repeatCount="indefinite"/>
    </circle>
    <g data-part="head">
      <g data-part="topper">
        <animateTransform attributeName="transform" type="rotate" values="0 48 17;-12 48 17;-3 48 17;-3 48 17;8 48 17;0 48 17" keyTimes="0;0.3;0.45;0.75;0.9;1" calcMode="spline" keySplines="0.45 0 0.55 1;0.45 0 0.55 1;0 0 1 1;0.45 0 0.55 1;0.45 0 0.55 1" dur="3.2s" repeatCount="indefinite"/>
        <path d="M48 17 Q47.5 11 50 7" stroke="#6E8B4E" stroke-width="2.2"/>
        <path d="M50 8.5 C51 3.5 56.5 1.5 61.5 3 C60.5 7.5 55 10.5 50 8.5 Z" fill="#8DAA63" stroke="none"/>
        <path d="M49 10.5 C47.5 6.5 42.5 5 38.5 6.5 C40 10.5 45 12.5 49 10.5 Z" fill="#7C9A55" stroke="none"/>
      </g>
      <circle cx="48" cy="29" r="13" fill="#D97757" stroke="none"/>
      <g data-part="face">
        <circle cx="53" cy="32.5" r="2.4" fill="#F2A58A" stroke="none"/>
        <path d="M53.2 27 Q55 25.2 56.8 27" stroke="#2B2420" stroke-width="1.8"/>
        <path d="M55 32.5 Q57.5 34.5 59.5 32" stroke="#2B2420" stroke-width="1.8"/>
      </g>
    </g>
  </g>
  <path d="M56 41 Q67 37 77 40 L77 26">
    <animate attributeName="d" values="M56 41 Q67 37 77 40 L77 26;M66.4 44 Q72 37 77 40 L77 26;M66.4 44 Q72 37 77 40 L77 26;M56 41 Q67 37 77 40 L77 26" keyTimes="0;0.35;0.75;1" calcMode="spline" keySplines="0.45 0 0.55 1;0 0 1 1;0.45 0 0.55 1" dur="3.2s" repeatCount="indefinite"/>
  </path>
  <circle cx="77" cy="24.5" r="2.8" fill="#2B2420" stroke="none"/>
</svg>